<svg width="20" height="20" viewBox="0 0 20 20" fill="none" xmlns="http://www.w3.org/2000/svg">
<g id="Facebook">
<path id="Vector" d="M20 10C20 15.5229 15.5229 20 10 20C4.47708 20 0 15.5229 0 10C0 4.47708 4.47708 0 10 0C15.5229 0 20 4.47708 20 10Z" fill="white"/>
<path id="Vector_2" d="M13.3333 4.13393V5.99129C13.3333 5.99129 10.9981 5.68177 10.9981 7.05752V8.43327H13.1073L12.8438 10.5313H10.9981V16H8.66292V10.5313L6.66666 10.4969V8.43327H8.62523V6.85113C8.62523 6.85113 8.49599 4.49752 11.0358 4.06522C12.0905 3.88561 13.3333 4.13393 13.3333 4.13393Z" fill="#5C6168"/>
</g>
</svg>
